<mxfile host="Electron" modified="2024-09-06T13:29:25.611Z" agent="Mozilla/5.0 (Windows NT 10.0; Win64; x64) AppleWebKit/537.36 (KHTML, like Gecko) draw.io/24.2.5 Chrome/120.0.6099.109 Electron/28.1.0 Safari/537.36" etag="JA-U00SPoyqy0uamj4vv" version="24.2.5" type="device">
  <diagram id="XF7HEMrhgQdyctFR9k2e" name="show_list_data(DiaryControllerクラス)">
    <mxGraphModel dx="1036" dy="606" grid="1" gridSize="10" guides="1" tooltips="1" connect="1" arrows="1" fold="1" page="1" pageScale="1" pageWidth="827" pageHeight="1169" math="0" shadow="0">
      <root>
        <mxCell id="0" />
        <mxCell id="1" parent="0" />
        <mxCell id="c1ehy162OinAQLc20oPs-1" value="" style="edgeStyle=orthogonalEdgeStyle;rounded=0;orthogonalLoop=1;jettySize=auto;html=1;" parent="1" source="c1ehy162OinAQLc20oPs-2" edge="1">
          <mxGeometry relative="1" as="geometry">
            <mxPoint x="400" y="320" as="targetPoint" />
          </mxGeometry>
        </mxCell>
        <mxCell id="c1ehy162OinAQLc20oPs-2" value="開始" style="strokeWidth=2;html=1;shape=mxgraph.flowchart.start_1;whiteSpace=wrap;" parent="1" vertex="1">
          <mxGeometry x="365" y="210" width="70" height="40" as="geometry" />
        </mxCell>
        <mxCell id="c1ehy162OinAQLc20oPs-15" value="" style="edgeStyle=orthogonalEdgeStyle;rounded=0;orthogonalLoop=1;jettySize=auto;html=1;" parent="1" source="c1ehy162OinAQLc20oPs-9" target="c1ehy162OinAQLc20oPs-14" edge="1">
          <mxGeometry relative="1" as="geometry" />
        </mxCell>
        <mxCell id="c1ehy162OinAQLc20oPs-9" value="self.diary_model.get_all()" style="shape=process;whiteSpace=wrap;html=1;backgroundOutline=1;" parent="1" vertex="1">
          <mxGeometry x="300" y="320" width="200" height="60" as="geometry" />
        </mxCell>
        <mxCell id="c1ehy162OinAQLc20oPs-11" style="rounded=0;orthogonalLoop=1;jettySize=auto;html=1;entryX=1;entryY=0.5;entryDx=0;entryDy=0;entryPerimeter=0;endArrow=none;endFill=0;" parent="1" source="c1ehy162OinAQLc20oPs-12" edge="1">
          <mxGeometry relative="1" as="geometry">
            <mxPoint x="500" y="350" as="targetPoint" />
          </mxGeometry>
        </mxCell>
        <mxCell id="c1ehy162OinAQLc20oPs-12" value="Diaryテーブルの一覧データを取得" style="text;html=1;align=left;verticalAlign=top;whiteSpace=wrap;rounded=0;fillColor=#f5f5f5;fontColor=#333333;strokeColor=#666666;" parent="1" vertex="1">
          <mxGeometry x="545" y="320" width="200" height="30" as="geometry" />
        </mxCell>
        <mxCell id="K4JBlWZRrigpQTaYBwhv-5" value="" style="edgeStyle=orthogonalEdgeStyle;rounded=0;orthogonalLoop=1;jettySize=auto;html=1;" edge="1" parent="1" source="c1ehy162OinAQLc20oPs-14" target="K4JBlWZRrigpQTaYBwhv-4">
          <mxGeometry relative="1" as="geometry" />
        </mxCell>
        <mxCell id="c1ehy162OinAQLc20oPs-14" value="取得したデータで&lt;div&gt;文字列成型&lt;/div&gt;" style="rounded=1;whiteSpace=wrap;html=1;" parent="1" vertex="1">
          <mxGeometry x="320" y="460" width="160" height="60" as="geometry" />
        </mxCell>
        <mxCell id="LT1SqhUdJDKgNxCUr6hy-1" value="&lt;b style=&quot;&quot;&gt;&lt;font style=&quot;&quot;&gt;&lt;font style=&quot;font-size: 18px;&quot;&gt;初期化メソッド&lt;/font&gt;&lt;/font&gt;&lt;/b&gt;&lt;div&gt;&lt;font style=&quot;font-size: 14px;&quot;&gt;クラス：DiaryControllerクラス&lt;/font&gt;&lt;/div&gt;&lt;div&gt;&lt;font style=&quot;font-size: 14px;&quot;&gt;&lt;br&gt;&lt;/font&gt;&lt;/div&gt;&lt;div&gt;&lt;font style=&quot;font-size: 14px;&quot;&gt;役割&lt;/font&gt;&lt;/div&gt;&lt;div&gt;&lt;font style=&quot;font-size: 14px;&quot;&gt;ビジネスロジックを定義する&lt;/font&gt;&lt;/div&gt;" style="text;html=1;align=left;verticalAlign=top;whiteSpace=wrap;rounded=0;fillColor=#f5f5f5;fontColor=#333333;strokeColor=#666666;" parent="1" vertex="1">
          <mxGeometry x="20" y="20" width="340" height="110" as="geometry" />
        </mxCell>
        <mxCell id="K4JBlWZRrigpQTaYBwhv-1" style="rounded=0;orthogonalLoop=1;jettySize=auto;html=1;entryX=1;entryY=0.5;entryDx=0;entryDy=0;entryPerimeter=0;endArrow=none;endFill=0;fontColor=#FF3333;" edge="1" parent="1" source="K4JBlWZRrigpQTaYBwhv-2">
          <mxGeometry relative="1" as="geometry">
            <mxPoint x="435" y="770" as="targetPoint" />
          </mxGeometry>
        </mxCell>
        <mxCell id="K4JBlWZRrigpQTaYBwhv-2" value="&lt;span style=&quot;font-size: 14px;&quot;&gt;戻り値：&lt;/span&gt;&lt;span style=&quot;text-align: center;&quot;&gt;成形した文字列&lt;/span&gt;" style="text;html=1;align=left;verticalAlign=top;whiteSpace=wrap;rounded=0;fillColor=#f5f5f5;fontColor=#FF3333;strokeColor=#666666;" vertex="1" parent="1">
          <mxGeometry x="480" y="740" width="162.5" height="30" as="geometry" />
        </mxCell>
        <mxCell id="K4JBlWZRrigpQTaYBwhv-3" value="終了" style="strokeWidth=2;html=1;shape=mxgraph.flowchart.start_1;whiteSpace=wrap;fontColor=#FF3333;" vertex="1" parent="1">
          <mxGeometry x="365" y="745" width="70" height="40" as="geometry" />
        </mxCell>
        <mxCell id="K4JBlWZRrigpQTaYBwhv-6" value="" style="edgeStyle=orthogonalEdgeStyle;rounded=0;orthogonalLoop=1;jettySize=auto;html=1;fontColor=#FF3333;" edge="1" parent="1" source="K4JBlWZRrigpQTaYBwhv-4" target="K4JBlWZRrigpQTaYBwhv-3">
          <mxGeometry relative="1" as="geometry" />
        </mxCell>
        <mxCell id="K4JBlWZRrigpQTaYBwhv-4" value="メッセージ表示" style="rounded=1;whiteSpace=wrap;html=1;fontColor=#FF3333;" vertex="1" parent="1">
          <mxGeometry x="320" y="600" width="160" height="60" as="geometry" />
        </mxCell>
        <mxCell id="K4JBlWZRrigpQTaYBwhv-7" value="&lt;span style=&quot;font-size: 14px;&quot;&gt;表示するメッセージ&lt;/span&gt;&lt;div&gt;&lt;span style=&quot;font-size: 14px;&quot;&gt;※｛｝中に変数を埋め込む&lt;/span&gt;&lt;div&gt;&lt;span style=&quot;font-size: 14px;&quot;&gt;ページ２のメッセージです。&lt;/span&gt;&lt;div&gt;&lt;span style=&quot;font-size: 14px;&quot;&gt;&lt;br&gt;&lt;/span&gt;&lt;/div&gt;&lt;div&gt;&lt;span style=&quot;font-size: 14px;&quot;&gt;Diaryデータ：&lt;/span&gt;&lt;/div&gt;&lt;div&gt;&lt;span style=&quot;font-size: 14px;&quot;&gt;｛成形したデータ｝&lt;/span&gt;&lt;/div&gt;&lt;/div&gt;&lt;/div&gt;" style="text;html=1;align=left;verticalAlign=top;whiteSpace=wrap;rounded=0;fillColor=#f5f5f5;fontColor=#FF3333;strokeColor=#666666;" vertex="1" parent="1">
          <mxGeometry x="500" y="567.5" width="370" height="125" as="geometry" />
        </mxCell>
      </root>
    </mxGraphModel>
  </diagram>
</mxfile>
